<?xml version="1.0" encoding="utf-8"?>
<!-- Generator: Adobe Illustrator 21.1.0, SVG Export Plug-In . SVG Version: 6.00 Build 0)  -->
<svg version="1.1" id="Layer_1" xmlns="http://www.w3.org/2000/svg" xmlns:xlink="http://www.w3.org/1999/xlink" x="0px" y="0px"
	 viewBox="0 0 31 31" style="enable-background:new 0 0 31 31;" xml:space="preserve">
<style type="text/css">
	.st0{fill:#FFFFFF;}
</style>
<title>crossover</title>
<g id="Page-1">
	<g id="Desktop---Scrolled-down">
		<g id="Group-2">
			<g id="Rectangle-2">
				<path class="st0" d="M15.2,26l-11-11l11-11l11,11L15.2,26z M6.4,15l8.8,8.8l8.8-8.8l-8.8-8.8L6.4,15z"/>
			</g>
			<g id="Line">
				<path class="st0" d="M29.5,30.2c-0.2,0-0.4-0.1-0.5-0.2L0.5,1.5c-0.3-0.3-0.3-0.8,0-1.1c0.3-0.3,0.7-0.3,1,0L30,29
					c0.3,0.3,0.3,0.8,0,1.1C29.9,30.2,29.7,30.3,29.5,30.2L29.5,30.2z"/>
			</g>
			<g id="Line-2">
				<path class="st0" d="M1,30.2c-0.4,0-0.7-0.4-0.7-0.8c0-0.2,0.1-0.3,0.2-0.4L29,0.5c0.4-0.2,0.8-0.1,1,0.3c0.1,0.2,0.1,0.5,0,0.8
					L1.5,30C1.4,30.1,1.2,30.2,1,30.2z"/>
			</g>
		</g>
	</g>
</g>
</svg>
