<?xml version="1.0" encoding="utf-8"?>
<!-- Generator: Adobe Illustrator 21.1.0, SVG Export Plug-In . SVG Version: 6.00 Build 0)  -->
<svg version="1.1" id="Layer_1" xmlns="http://www.w3.org/2000/svg" xmlns:xlink="http://www.w3.org/1999/xlink" x="0px" y="0px"
	 viewBox="0 0 102 51" style="enable-background:new 0 0 102 51;" xml:space="preserve">
<style type="text/css">
	.st0{fill:#FFFFFF;}
</style>
<title>wandl-logo-lite</title>
<g id="Symbols">
	<g id="nav">
		<g id="willowlarklogoonly">
			<path id="Fill-2" class="st0" d="M52.1,44.6c-0.5,2-0.9,3.9-1.2,5.9c-4.2-0.1-7.2-0.2-9-0.2c-1.8,0-4.7,0.1-8.9,0.2
				c-0.2,0-0.3-0.1-0.3-0.5c0-0.3,0.1-0.4,0.3-0.4c0.9,0,1.9-0.3,2.7-0.7c0.6-0.5,0.8-1.3,0.7-2V31.8c0-0.5-0.1-1.1-0.3-1.6
				c-0.2-0.3-0.6-0.6-1-0.7c-0.7-0.2-1.4-0.4-2.1-0.4c-0.2,0-0.3-0.1-0.3-0.4s0.1-0.4,0.3-0.4c0.7,0,1.6,0,2.6,0.1
				c1,0.1,1.8,0.1,2.5,0.1c0.7,0,1.5,0,2.5-0.1c1-0.1,1.8-0.1,2.6-0.1c0.2,0,0.3,0.1,0.3,0.4S43.4,29,43.2,29
				c-0.7,0.1-1.4,0.2-2.1,0.4c-0.4,0.1-0.8,0.4-1,0.7c-0.2,0.5-0.3,1.1-0.3,1.6v15.7c-0.1,0.9,0.5,1.8,1.4,1.9c0.2,0,0.3,0,0.5,0H45
				c1.2,0,2.4-0.3,3.4-1.1c1.2-1.1,2.2-2.4,2.8-4c0-0.1,0.1-0.1,0.3-0.1c0.1,0,0.3,0,0.4,0.1C52,44.4,52.1,44.5,52.1,44.6"/>
			<path id="Fill-3" class="st0" d="M61.5,43.1c-3.2,0.7-4.8,1.9-4.8,3.5c0,1.5,0.6,2.3,1.8,2.3c0.6,0,1.2-0.2,1.7-0.4
				c0.5-0.2,0.9-0.6,1.1-1.1L61.5,43.1z M64,50.4c-0.6,0-1.1-0.1-1.6-0.4c-0.4-0.3-0.8-0.7-0.9-1.2c-1.2,1.2-2.9,1.9-4.6,1.8
				c-0.9,0-1.8-0.3-2.4-0.9c-0.6-0.6-1-1.4-0.9-2.2c0-2.2,2.7-4,8-5.4l0.1-2.5v-0.1c0-0.7-0.2-1.3-0.6-1.8c-0.4-0.5-1-0.7-1.6-0.7
				c-0.6,0-1.2,0.1-1.7,0.5c-0.4,0.2-0.7,0.7-0.7,1.2c0,0.6-0.2,1.2-0.5,1.6c-0.4,0.4-0.9,0.6-1.4,0.6c-0.3,0-0.6-0.1-0.9-0.3
				c-0.2-0.2-0.3-0.5-0.3-0.8c0-0.8,0.8-1.7,2.3-2.6c1.3-0.8,2.8-1.3,4.3-1.4c1.1-0.1,2.1,0.3,2.9,1c0.8,0.7,1.2,1.7,1.1,2.8v0.2
				l-0.2,7.3V47c0,1.1,0.4,1.7,1.1,1.7c0.5-0.1,0.9-0.3,1.3-0.7h0.1c0.1,0,0.2,0.1,0.2,0.2c0.1,0.1,0.1,0.2,0.1,0.4
				c0,0.3-0.3,0.7-1,1.2C65.6,50.2,64.8,50.4,64,50.4L64,50.4z"/>
			<path id="Fill-4" class="st0" d="M79.2,37.7c0,0.4-0.1,0.8-0.4,1.1c-0.2,0.3-0.6,0.5-1,0.5c-0.5,0-1-0.2-1.4-0.5
				c-0.3-0.2-0.6-0.3-1-0.4c-0.9,0.1-1.7,0.5-2.2,1.2v7.3c-0.1,0.7,0.1,1.4,0.5,2c0.6,0.5,1.3,0.8,2.1,0.8c0.2,0,0.3,0.1,0.3,0.4
				s-0.1,0.4-0.3,0.5c-0.5,0-1.1,0-1.9-0.1c-0.8-0.1-1.5-0.1-2.2-0.1c-0.5,0-1.2,0-2,0.1s-1.4,0.1-1.7,0.1c-0.2,0-0.3-0.2-0.3-0.5
				s0.1-0.4,0.3-0.4c0.7,0,1.4-0.3,1.9-0.7c0.3-0.6,0.5-1.3,0.4-2.1V41c0.1-0.6-0.1-1.2-0.3-1.7c-0.4-0.3-1-0.5-1.5-0.5
				c-0.2,0-0.3-0.1-0.3-0.4s0.1-0.4,0.3-0.4c0.9-0.2,1.8-0.5,2.7-0.9c0.5-0.2,1-0.5,1.4-0.8c0.1-0.1,0.2-0.2,0.4-0.2
				c0.3,0,0.5,0.1,0.5,0.3l-0.1,2c0.7-0.7,1.4-1.2,2.3-1.7c0.6-0.3,1.2-0.5,1.9-0.5c0.5,0,0.9,0.2,1.3,0.5
				C79,36.9,79.2,37.3,79.2,37.7"/>
			<path id="Fill-5" class="st0" d="M100.4,46.8c-0.2-0.5-0.6-0.8-1.1-1c-0.3-0.1-0.7-0.1-1.1,0c-0.3,0.1-0.6,0.4-0.7,0.7
				c-0.2,0.4-0.1,0.9,0.2,1.3c0.3,0.4,0.3,0.9,0.2,1.3c-0.1,0.2-0.3,0.4-0.6,0.5l-0.8,0.2c-0.8-0.1-1.7-0.3-2.4-0.7
				c-0.9-0.6-1.6-1.2-2.3-2l-4.3-4.6l2.8-2.5c0.7-0.7,1.6-1.3,2.4-1.8c0.7-0.3,1.4-0.5,2.1-0.5c0.2,0,0.3-0.1,0.3-0.4
				c0-0.3-0.1-0.4-0.3-0.4c-0.6,0-1.1,0-1.7,0.1c-0.4,0-0.8,0.1-1.2,0.1c-0.4,0-1,0-1.6-0.1s-1.2-0.1-1.8-0.1
				c-0.2,0-0.3,0.1-0.3,0.4c0,0.3,0.1,0.4,0.3,0.4c0.9,0.1,1.3,0.3,1.3,0.6c0,0.4-0.5,1-1.4,1.8l-0.4,0.3l-2.5,2.3
				c-0.3,0.2-0.6,0.3-0.9,0.3V33c0-2,0.1-3.9,0.3-5.6c0-0.2-0.2-0.3-0.5-0.3c-0.2,0-0.3,0.1-0.4,0.2c-1.2,0.8-2.7,1.4-4.1,1.6
				c-0.2,0-0.3,0.1-0.3,0.4s0.1,0.4,0.3,0.4c0.5,0,1.1,0.2,1.5,0.5c0.3,0.5,0.4,1.1,0.3,1.7v15c0.1,0.7-0.1,1.5-0.4,2.1
				c-0.5,0.4-1.1,0.6-1.8,0.6c-0.2,0-0.3,0.1-0.3,0.4c0,0.3,0.1,0.5,0.3,0.5c0.4,0,0.9,0,1.6-0.1s1.2-0.1,1.7-0.1c0.4,0,1,0,1.7,0.1
				c0.7,0.1,1.3,0.1,1.8,0.1c0.2,0,0.3-0.2,0.3-0.5s-0.1-0.4-0.3-0.4c-0.5,0-1-0.3-1.3-0.7c-0.3-0.6-0.4-1.3-0.4-2v-3.2
				c0.3,0,0.6,0.1,0.9,0.3l2.7,2.9c1.1,1.1,1.6,1.8,1.6,2.1c0,0.2,0,0.3-0.2,0.4c-0.2,0.1-0.4,0.1-0.6,0.2c-0.2,0-0.3,0.2-0.3,0.4
				s0.1,0.5,0.3,0.5c0.4,0,1,0,1.8-0.1c0.8-0.1,1.4-0.1,2-0.1c0.5,0,1.2,0,1.9,0.1l1,0.1h0.6h0.1c0.5,0,1-0.1,1.5-0.3
				c1-0.3,1.9-1,2.3-1.9C100.6,47.9,100.6,47.3,100.4,46.8"/>
			<path id="Fill-6" class="st0" d="M37,1.8c0.3,0,0.5,0.1,0.7,0.3l0.1,0.1c-0.3,0.3-0.5,0.7-0.5,1.1c0,0.4,0.2,0.9,0.5,1.2
				c0.1,0.1,0.3,0.2,0.4,0.3C38.4,5,38.7,5.1,39,5.2c0.4,0,0.7-0.1,1-0.3c0.2-0.2,0.4-0.4,0.6-0.7c0.1-0.2,0.2-0.5,0.2-0.8
				c0-0.1,0-0.2,0-0.3c-0.1-0.4-0.2-0.8-0.5-1.1c-0.7-0.8-1.7-1.3-2.8-1.2c-0.3,0-0.6,0-0.9,0c-0.5,0-0.9,0-1.5,0.1
				s-1.2,0.1-1.7,0.1s-1,0-1.7-0.1s-1.4,0-1.9,0c-0.2,0-0.3,0.1-0.3,0.4s0.1,0.4,0.2,0.4c1.5,0.1,2.2,0.6,2.2,1.7
				c0,0.5-0.1,1-0.3,1.5l-6.4,14.4l-4.3-8.6L24.1,5c0.5-1,1.2-1.9,2-2.6c0.6-0.4,1.3-0.7,2.1-0.7c0.2,0,0.4-0.2,0.4-0.5
				s-0.1-0.4-0.2-0.4c-0.6,0-1.3,0-2.1,0.1C25.5,1,25,1,24.7,1c-0.5,0-1.1,0-1.8-0.1s-1.4-0.1-1.9-0.1c-0.1,0-0.1,0-0.2,0.1
				c-0.1,0.1-0.1,0.2-0.1,0.3c0,0.3,0.1,0.4,0.2,0.4C22.3,1.7,23,2.3,23,3.3c0,0.6-0.2,1.1-0.5,1.6l-2.4,4.4l-2.4-4.8
				c-0.3-0.5-0.4-1-0.5-1.5c0-0.7,0.7-1.1,2.2-1.2c0.1,0,0.2-0.1,0.2-0.4s-0.1-0.5-0.3-0.5c-0.7,0-1.5,0-2.2,0.1C16.4,1,15.7,1,15,1
				c-0.6,0-1.3,0-1.9-0.1c-0.7-0.1-1.3-0.1-2-0.1c-0.1,0-0.2,0.1-0.2,0.4c0,0.1,0,0.2,0.1,0.3c0,0.1,0.1,0.1,0.2,0.1
				c0.7,0,1.4,0.3,1.9,0.7C13.8,3.2,14.3,4,14.7,5l3.6,7.4l-4,7.2L7.6,4.4c-0.2-0.3-0.2-0.7-0.3-1C7.4,3,7.6,2.5,8,2.2
				c0.5-0.3,1.1-0.5,1.7-0.5c0.1,0,0.2-0.1,0.2-0.4S9.8,0.8,9.6,0.8c-0.7,0-1.6,0-2.5,0.1S5.3,1,4.7,1C4,1,3.3,1,2.6,0.9
				S1.1,0.8,0.3,0.8C0.1,0.8,0,0.9,0,1.2c0,0.1,0,0.2,0.1,0.3c0.1,0.1,0.2,0.1,0.2,0.1c0.9,0,1.7,0.3,2.4,0.9C3.5,3.2,4.1,4.1,4.4,5
				l8.3,18.5c0.1,0.2,0.3,0.3,0.5,0.3c0.2,0,0.4-0.1,0.5-0.3l5.4-9.6l4.7,9.6c0.1,0.2,0.3,0.3,0.5,0.3c0.2,0,0.4-0.1,0.5-0.3L33.1,5
				c0.4-0.9,0.9-1.8,1.6-2.5c0.4-0.3,0.9-0.6,1.4-0.7L37,1.8"/>
			<path id="Fill-7" class="st0" d="M40.9,21.6c-0.3-0.6-0.5-1.4-0.4-2.1v-5.1c0-1.3,0.1-3.2,0.3-5.6c0-0.2-0.2-0.3-0.5-0.3
				c-0.1,0-0.3,0.1-0.4,0.2c-0.4,0.4-0.9,0.6-1.4,0.8c-0.9,0.4-1.9,0.7-2.8,0.9c-0.2,0-0.3,0.1-0.3,0.4s0.1,0.4,0.3,0.4
				c0.5,0,1.1,0.2,1.5,0.5c0.3,0.5,0.4,1.1,0.3,1.7v6c0.1,0.7-0.1,1.4-0.4,2.1c-0.5,0.4-1.1,0.7-1.8,0.7c-0.2,0-0.3,0.2-0.3,0.4
				s0.1,0.5,0.3,0.5c0.5,0,1,0,1.7-0.1c0.7-0.1,1.4-0.1,2-0.1c0.5,0,1.2,0,2,0.1c0.8,0.1,1.4,0.1,1.7,0.1c0.2,0,0.3-0.2,0.3-0.5
				c0-0.3-0.1-0.4-0.3-0.4C42.1,22.3,41.4,22.1,40.9,21.6z"/>
			<path id="Fill-8" class="st0" d="M51.6,22.5c-0.7,0-1.3-0.2-1.8-0.6c-0.3-0.6-0.5-1.4-0.4-2.1V5.7c0-1.3,0.1-3.2,0.3-5.6L48.8,0
				c-0.4,0.4-0.9,0.6-1.4,0.8c-0.9,0.4-1.9,0.7-2.8,0.9c-0.2,0-0.3,0.1-0.3,0.4s0.1,0.4,0.3,0.4c0.6,0,1.1,0.2,1.5,0.5
				c0.3,0.5,0.4,1.1,0.3,1.7v15c0.1,0.7,0,1.4-0.4,2.1c-0.5,0.4-1.2,0.7-1.8,0.6c-0.2,0-0.3,0.1-0.3,0.4s0.1,0.4,0.3,0.5
				c0.5,0,1,0,1.7-0.1c0.7-0.1,1.4-0.1,2-0.1c0.5,0,1.2,0,2,0.1c0.8,0.1,1.4,0.1,1.7,0.1c0.2,0,0.3-0.2,0.3-0.5
				C51.9,22.6,51.8,22.5,51.6,22.5"/>
			<path id="Fill-9" class="st0" d="M60.4,22.5c-0.7,0-1.3-0.2-1.8-0.6c-0.3-0.6-0.5-1.4-0.4-2.1V5.7c0-1.3,0.1-3.2,0.3-5.6L57.6,0
				c-0.4,0.4-0.9,0.6-1.4,0.8c-0.9,0.4-1.9,0.7-2.8,0.9c-0.2,0-0.3,0.1-0.3,0.4s0.1,0.4,0.3,0.4c0.6,0,1.1,0.2,1.5,0.5
				c0.3,0.5,0.4,1.1,0.3,1.7v15c0.1,0.7-0.1,1.4-0.4,2.1c-0.5,0.4-1.2,0.7-1.8,0.6c-0.2,0-0.3,0.1-0.3,0.4c0,0.3,0.1,0.4,0.3,0.5
				c0.5,0,1,0,1.7-0.1s1.4-0.1,2-0.1c0.5,0,1.2,0,2,0.1s1.4,0.1,1.7,0.1c0.2,0,0.3-0.1,0.3-0.5S60.6,22.5,60.4,22.5"/>
			<path id="Fill-10" class="st0" d="M72.9,21.2c-1.2,1.8-3.6,2.2-5.4,1.1c-0.4-0.3-0.8-0.6-1.1-1.1c-0.8-1.4-1.2-3-1.2-4.6
				c-0.1-1.7,0.3-3.3,1.2-4.7c1.1-1.8,3.4-2.3,5.2-1.2c0.5,0.3,0.9,0.7,1.2,1.2c0.8,1.4,1.2,3.1,1.1,4.7
				C74.1,18.2,73.7,19.8,72.9,21.2z M69.7,9c-2.1-0.1-4.1,0.7-5.5,2.1c-1.4,1.4-2.2,3.4-2.1,5.4c-0.1,2,0.7,3.9,2.2,5.3
				c3.2,2.8,7.9,2.8,11.1,0c1.4-1.4,2.2-3.3,2.1-5.3c0.1-2-0.7-4-2.2-5.4C73.8,9.7,71.8,8.9,69.7,9z"/>
			<path id="Fill-11" class="st0" d="M101.4,9.4c-0.5,0-1.1,0-1.6,0.1c-0.4,0-0.7,0.1-1.1,0.1c-0.5,0-1,0-1.5-0.1
				c-0.5-0.1-1.1-0.1-1.6-0.1c-0.2,0-0.3,0.1-0.3,0.4s0.1,0.4,0.3,0.4c1,0.1,1.5,0.5,1.5,1.3c0,0.6-0.2,1.2-0.5,1.7l-2.6,6L91.6,13
				c-0.1-0.4-0.2-0.7-0.2-1.1c0-0.9,0.6-1.5,1.7-1.6c0.2,0,0.3-0.2,0.3-0.4s-0.1-0.4-0.3-0.4c-0.5,0-1,0-1.7,0.1
				c-0.7,0.1-1.3,0.1-1.8,0.1c-0.5,0-1,0-1.6-0.1c-0.5-0.1-1-0.1-1.4-0.1c-0.2,0-0.3,0.1-0.3,0.4s0.1,0.4,0.3,0.4
				c0.4,0,0.8,0.1,1.1,0.4c0.3,0.4,0.5,0.9,0.7,1.4c0.1,0.2,0.1,0.4,0.2,0.5l0.1,0.5l-2.9,6.3L83.2,13c-0.2-0.5-0.4-1.1-0.4-1.7
				c0-0.3,0.1-0.6,0.3-0.8c0.4-0.2,0.7-0.3,1.2-0.3c0.2,0,0.3-0.2,0.3-0.4s-0.1-0.4-0.3-0.4c-0.5,0-1,0-1.7,0.1
				c-0.6,0.1-1.3,0.1-1.8,0.1c-0.5,0-1.2,0-1.9-0.1c-0.7-0.1-1.3-0.1-1.6-0.1c-0.2,0-0.3,0.1-0.3,0.4s0.1,0.4,0.3,0.4
				c0.7,0,1.3,0.3,1.8,0.7c0.6,0.6,1,1.3,1.3,2l4.4,10.6c0.1,0.2,0.2,0.3,0.4,0.3c0.2,0,0.3-0.1,0.4-0.3l3.9-8.5l3.4,8.5
				c0,0.2,0.2,0.3,0.4,0.3c0.2,0,0.3-0.1,0.4-0.3L98.4,13c0.3-0.7,0.7-1.4,1.2-2c0.5-0.4,1.2-0.7,1.9-0.7c0.2,0,0.3-0.2,0.3-0.4
				S101.6,9.4,101.4,9.4"/>
			<path id="Fill-12" class="st0" d="M15.4,32.4c0,0.6,0,1.1,0.2,1.7c0.1,0.5,0.3,1.1,0.5,1.6l0.4,0.6c0.9-0.5,1.6-1.1,2.2-1.9
				c0.5-0.6,0.7-1.3,0.8-2c0-1.6-0.7-2.4-2-2.4c-0.5,0-1.1,0.2-1.4,0.6C15.6,31.1,15.3,31.8,15.4,32.4 M11,43.8
				c-0.1,1.2,0.3,2.3,1,3.2c1.2,1.5,3.1,2.3,5,2.2c1.1-0.1,2.2-0.6,3-1.4l-5.5-9.5c-1,0.6-1.9,1.4-2.6,2.4
				C11.3,41.6,11,42.7,11,43.8 M8,45.2c0-0.6,0.1-1.3,0.3-1.9c0.2-0.6,0.5-1.2,0.8-1.7c0.4-0.5,0.8-1,1.4-1.5
				c0.5-0.5,1.1-0.9,1.7-1.3c0.6-0.4,1.3-0.8,2-1.2c-0.7-1.1-1.2-2.4-1.3-3.8c0-1.2,0.4-2.4,1.3-3.2c0.8-0.8,1.9-1.3,3-1.3
				c0.9-0.1,1.8,0.2,2.4,0.9c0.5,0.6,0.8,1.5,0.7,2.3c0,0.9-0.4,1.8-1,2.4c-0.7,0.9-1.6,1.6-2.5,2.2l5.1,8.7c1.3-1.9,2.2-4,2.7-6.2
				H21v-0.7h8v0.7h-3.7c-0.5,2.5-1.4,4.8-2.7,7c0.5,0.9,1.2,1.8,2,2.5c0.6,0.5,1.3,0.8,2.1,0.8c0.6,0,1.3-0.1,1.9-0.3l0.3,0.8
				c-1,0.3-2,0.5-3.1,0.5c-1.9,0.2-3.8-0.7-5-2.2c-1.6,1.4-3.7,2.2-5.8,2.2c-1.9,0.2-3.8-0.4-5.2-1.6c-0.5-0.5-0.9-1.1-1.2-1.7
				C8.2,46.6,8.1,46,8,45.2"/>
		</g>
	</g>
</g>
</svg>
