<svg id="Layer_1" data-name="Layer 1" xmlns="http://www.w3.org/2000/svg" viewBox="0 0 102 51"><title>wandl-logo-lite</title><g id="Symbols"><g id="nav"><g id="willowlarklogoonly"><path id="Fill-2" d="M52.1,44.64a48.91,48.91,0,0,0-1.22,5.94q-6.33-.19-9-.19T33,50.58q-.26,0-.26-.45t.26-.44A6.45,6.45,0,0,0,35.7,49a2.31,2.31,0,0,0,.72-2V31.76a3.17,3.17,0,0,0-.29-1.59,1.93,1.93,0,0,0-1-.73A9.81,9.81,0,0,0,33,29c-.18,0-.26-.15-.26-.44s.09-.44.26-.44q1.11,0,2.64.1t2.48.1q1,0,2.46-.1t2.63-.1c.18,0,.27.15.27.44s-.09.44-.27.44a9.81,9.81,0,0,0-2.12.43,1.89,1.89,0,0,0-1,.72,3.25,3.25,0,0,0-.28,1.6V47.44a1.69,1.69,0,0,0,1.92,1.91H45a5.56,5.56,0,0,0,3.44-1.06,10.66,10.66,0,0,0,2.78-3.95q.07-.13.31-.13a.71.71,0,0,1,.41.13.36.36,0,0,1,.19.29"/><path id="Fill-3" d="M61.5,43.13q-4.81,1.07-4.81,3.53,0,2.3,1.81,2.3a3.77,3.77,0,0,0,1.72-.43,2.37,2.37,0,0,0,1.14-1.06ZM64,50.41a2.87,2.87,0,0,1-1.6-.44,2.21,2.21,0,0,1-.93-1.2,6.25,6.25,0,0,1-4.63,1.78,3.38,3.38,0,0,1-2.43-.9,3,3,0,0,1-.94-2.24q0-3.31,8-5.36l.1-2.52v-.08A2.74,2.74,0,0,0,61,37.6a2,2,0,0,0-1.56-.69,2.87,2.87,0,0,0-1.65.46,1.4,1.4,0,0,0-.69,1.15,2.34,2.34,0,0,1-.55,1.61,1.85,1.85,0,0,1-1.43.58,1.21,1.21,0,0,1-.86-.31A1.07,1.07,0,0,1,54,39.6q0-1.24,2.31-2.61a8.57,8.57,0,0,1,4.3-1.36,4.07,4.07,0,0,1,2.89,1,3.61,3.61,0,0,1,1.11,2.78v.19l-.25,7.29V47q0,1.69,1.12,1.69a2.07,2.07,0,0,0,1.27-.65l.12,0a.32.32,0,0,1,.25.17.64.64,0,0,1,.11.36q0,.47-1,1.15a3.8,3.8,0,0,1-2.17.68Z"/><path id="Fill-4" d="M79.23,37.74a1.59,1.59,0,0,1-.4,1.1,1.27,1.27,0,0,1-1,.45,2.59,2.59,0,0,1-1.44-.47,1.86,1.86,0,0,0-1-.37,3.16,3.16,0,0,0-2.21,1.23v7.26a3,3,0,0,0,.49,2,3.52,3.52,0,0,0,2.12.77q.26,0,.26.44t-.26.45q-.68,0-1.92-.1t-2.17-.1q-.82,0-2,.1t-1.74.1q-.26,0-.26-.45t.26-.44A3,3,0,0,0,69.85,49a3.51,3.51,0,0,0,.4-2.06V41a2.85,2.85,0,0,0-.34-1.69,2.36,2.36,0,0,0-1.51-.53c-.18,0-.26-.14-.26-.43s.09-.39.26-.39a15.15,15.15,0,0,0,2.7-.9,4.82,4.82,0,0,0,1.39-.85.57.57,0,0,1,.39-.19q.46,0,.46.26l-.13,2a11.24,11.24,0,0,1,2.27-1.68,4.14,4.14,0,0,1,1.89-.48,1.9,1.9,0,0,1,1.31.48,1.47,1.47,0,0,1,.55,1.13"/><path id="Fill-5" d="M100.38,46.76a1.88,1.88,0,0,0-1.09-1,1.44,1.44,0,0,0-1.06,0,1.18,1.18,0,0,0-.72.67,1.48,1.48,0,0,0,.16,1.3,1.47,1.47,0,0,1,.18,1.3,1,1,0,0,1-.56.5l-.78.2a6.15,6.15,0,0,1-2.42-.7,11.27,11.27,0,0,1-2.31-2l-4.33-4.63,2.84-2.46a12,12,0,0,1,2.44-1.76,6.59,6.59,0,0,1,2.11-.55q.26,0,.26-.44t-.26-.44a13.89,13.89,0,0,0-1.65.11,12.17,12.17,0,0,1-1.24.08q-.64,0-1.62-.1t-1.75-.1q-.26,0-.26.44t.26.44q1.32.16,1.32.59,0,.59-1.37,1.81l-.38.34-2.46,2.28a1.37,1.37,0,0,1-.94.31v-10q0-3,.26-5.62c0-.17-.15-.26-.46-.26a.73.73,0,0,0-.41.19A10.63,10.63,0,0,1,80,28.9c-.18,0-.26.14-.26.43s.09.39.26.41a2.28,2.28,0,0,1,1.5.53A3,3,0,0,1,81.77,32V47a3.54,3.54,0,0,1-.41,2.09,2.76,2.76,0,0,1-1.8.64q-.26,0-.26.44c0,.3.09.45.26.45q.63,0,1.59-.1t1.71-.1q.62,0,1.71.1t1.85.1c.18,0,.26-.15.26-.45s-.09-.41-.26-.44A1.66,1.66,0,0,1,85.08,49a4.18,4.18,0,0,1-.36-2v-3.2a1.22,1.22,0,0,1,.89.32L88.26,47q1.59,1.65,1.59,2.13a.47.47,0,0,1-.18.44,1.57,1.57,0,0,1-.61.16c-.18,0-.26.17-.26.44s.09.45.26.45q.66,0,1.8-.1t2-.1q.81,0,1.95.1l1,.08.56,0h.12A5.25,5.25,0,0,0,98,50.34a3.46,3.46,0,0,0,2.31-1.92,2.08,2.08,0,0,0,.06-1.66"/><path id="Fill-6" d="M37,1.77a1.05,1.05,0,0,1,.68.33l.09.14a1.6,1.6,0,0,0-.46,1.15,1.61,1.61,0,0,0,.5,1.18,1.73,1.73,0,0,0,.43.31,1.23,1.23,0,0,0,.71.28,1.43,1.43,0,0,0,1-.3,1.88,1.88,0,0,0,.58-.7,1.57,1.57,0,0,0,.2-.76,1.82,1.82,0,0,0,0-.31A2.33,2.33,0,0,0,40.22,2,3.52,3.52,0,0,0,37.47.75a4.85,4.85,0,0,0-.89,0c-.45,0-.93,0-1.46.09s-1.2.1-1.68.1-1,0-1.72-.1S30.34.8,29.8.8q-.3,0-.3.44t.2.44q2.21.1,2.21,1.69a3.84,3.84,0,0,1-.33,1.46L25.23,19.25,20.94,10.7,24.11,5a8.93,8.93,0,0,1,2-2.58,4.22,4.22,0,0,1,2.07-.7c.24,0,.36-.17.36-.51S28.44.8,28.31.8q-.84,0-2.1.11-1,.08-1.5.08c-.47,0-1.08,0-1.82-.1S21.47.8,20.94.8c-.07,0-.13,0-.2.14a.51.51,0,0,0-.1.3q0,.44.2.44,2.21.1,2.21,1.59a3.46,3.46,0,0,1-.5,1.56L20.18,9.18l-2.4-4.75a3.92,3.92,0,0,1-.51-1.51q0-1.09,2.21-1.23c.11,0,.16-.15.16-.44S19.56.8,19.38.8q-1.11,0-2.25.1T15,1a17.72,17.72,0,0,1-1.9-.1,19.6,19.6,0,0,0-2-.1c-.15,0-.23.15-.23.44a.48.48,0,0,0,.11.31.29.29,0,0,0,.22.13,3.25,3.25,0,0,1,1.9.71A9.61,9.61,0,0,1,14.71,5l3.62,7.41-4,7.2L7.61,4.44a2.48,2.48,0,0,1-.26-1A1.46,1.46,0,0,1,8,2.24a3.31,3.31,0,0,1,1.74-.55c.11,0,.16-.15.16-.44S9.8.8,9.62.8Q8.52.8,7.08.89T4.7,1q-1,0-2.12-.1T.26.8C.09.8,0,.95,0,1.24a.46.46,0,0,0,.12.31.33.33,0,0,0,.25.13,4.54,4.54,0,0,1,2.4.85A6.51,6.51,0,0,1,4.4,5l8.28,18.54a.47.47,0,0,0,.48.26.52.52,0,0,0,.46-.26l5.43-9.63,4.73,9.63a.52.52,0,0,0,.46.26c.25,0,.41-.09.46-.26L33.13,5a7.24,7.24,0,0,1,1.6-2.51,3.26,3.26,0,0,1,1.38-.67H37"/><path id="Fill-7" d="M40.87,21.63a3.52,3.52,0,0,1-.4-2.07V14.5q0-2,.26-5.62,0-.26-.46-.26a.47.47,0,0,0-.36.19,4.48,4.48,0,0,1-1.38.81,17.76,17.76,0,0,1-2.83.93c-.18,0-.26.13-.26.4s.09.43.26.43a2.3,2.3,0,0,1,1.48.53,2.86,2.86,0,0,1,.34,1.69v6a3.51,3.51,0,0,1-.4,2.06,2.89,2.89,0,0,1-1.81.66c-.18,0-.26.17-.26.44s.09.45.26.45q.68,0,1.72-.1t2-.1q.81,0,2,.1t1.74.1q.26,0,.26-.45c0-.27-.09-.41-.26-.44A3,3,0,0,1,40.87,21.63Z"/><path id="Fill-8" d="M51.58,22.51a2.87,2.87,0,0,1-1.83-.65,3.5,3.5,0,0,1-.41-2.07V5.7q0-2,.26-5.62L48.77,0a4.26,4.26,0,0,1-1.39.83,17.84,17.84,0,0,1-2.84.93q-.26,0-.26.39t.26.41a2.35,2.35,0,0,1,1.52.53,3,3,0,0,1,.33,1.71v15A3.45,3.45,0,0,1,46,21.86a2.89,2.89,0,0,1-1.83.65q-.26,0-.26.44t.26.45q.68,0,1.74-.08t2-.08q.81,0,2,.08t1.73.08q.26,0,.26-.45t-.26-.44"/><path id="Fill-9" d="M60.43,22.51a2.87,2.87,0,0,1-1.83-.65,3.5,3.5,0,0,1-.41-2.07V5.7q0-2,.26-5.62L57.62,0a4.26,4.26,0,0,1-1.39.83,17.84,17.84,0,0,1-2.84.93c-.18,0-.26.13-.26.39s.09.39.26.41a2.35,2.35,0,0,1,1.52.53,3,3,0,0,1,.33,1.71v15a3.45,3.45,0,0,1-.42,2.07,2.89,2.89,0,0,1-1.83.65q-.26,0-.26.44t.26.45q.68,0,1.74-.08t2-.08q.81,0,2,.08t1.73.08q.26,0,.26-.45t-.26-.44"/><path id="Fill-10" d="M72.88,21.18a3.86,3.86,0,0,1-6.41,0,8.2,8.2,0,0,1-1.16-4.64,8.42,8.42,0,0,1,1.17-4.71,3.76,3.76,0,0,1,6.39,0A8.46,8.46,0,0,1,74,16.52,8.19,8.19,0,0,1,72.88,21.18ZM69.68,9a7.53,7.53,0,0,0-5.54,2.15A7.3,7.3,0,0,0,62,16.55a7,7,0,0,0,2.15,5.28,8.46,8.46,0,0,0,11.11,0,7,7,0,0,0,2.14-5.29,7.32,7.32,0,0,0-2.15-5.41A7.51,7.51,0,0,0,69.68,9Z"/><path id="Fill-11" d="M101.44,9.38a14.9,14.9,0,0,0-1.64.11,10.5,10.5,0,0,1-1.09.08,13.51,13.51,0,0,1-1.52-.1,14.19,14.19,0,0,0-1.58-.1c-.18,0-.26.15-.26.45s.09.41.28.44q1.49.19,1.49,1.27a4.29,4.29,0,0,1-.48,1.72l-2.62,6L91.64,13a3.11,3.11,0,0,1-.18-1.11q0-1.42,1.73-1.65c.18,0,.27-.17.27-.44s-.09-.45-.27-.45q-.68,0-1.68.1t-1.84.1a14.92,14.92,0,0,1-1.57-.1,12.79,12.79,0,0,0-1.44-.1c-.18,0-.26.15-.26.44s.09.42.26.44a1.64,1.64,0,0,1,1.07.41,5.16,5.16,0,0,1,.71,1.42c.08.22.14.39.2.5l.11.51-2.86,6.33-2.68-6.36a5.75,5.75,0,0,1-.45-1.72.88.88,0,0,1,.32-.76,2.53,2.53,0,0,1,1.15-.34c.18,0,.26-.17.26-.44s-.09-.44-.26-.44q-.68,0-1.65.1t-1.85.1q-.8,0-1.88-.1t-1.62-.1c-.17,0-.26.15-.26.44s.09.42.26.44a3.1,3.1,0,0,1,1.82.72,5.54,5.54,0,0,1,1.26,2l4.45,10.55a.42.42,0,0,0,.41.26.5.5,0,0,0,.43-.26l3.87-8.46,3.38,8.46a.36.36,0,0,0,.36.26.47.47,0,0,0,.43-.26L98.4,13a7.43,7.43,0,0,1,1.2-2,3.34,3.34,0,0,1,1.86-.69c.18,0,.26-.17.26-.44s-.09-.45-.28-.45"/><path id="Fill-12" d="M15.39,32.44a7.67,7.67,0,0,0,.16,1.67,10.64,10.64,0,0,0,.51,1.58l.35.56a8,8,0,0,0,2.23-1.91,3.37,3.37,0,0,0,.78-2q0-2.39-2-2.39A1.91,1.91,0,0,0,16,30.6a2.62,2.62,0,0,0-.63,1.84M11,43.78a4.94,4.94,0,0,0,1,3.23A6,6,0,0,0,17,49.16,4.44,4.44,0,0,0,20,47.76L14.51,38.3a8.63,8.63,0,0,0-2.62,2.38A5.4,5.4,0,0,0,11,43.78m-3,1.43a5.89,5.89,0,0,1,.31-1.9,6.41,6.41,0,0,1,.84-1.66,8.89,8.89,0,0,1,1.35-1.48,16.29,16.29,0,0,1,1.71-1.33q.89-.6,2-1.24a7.71,7.71,0,0,1-1.26-3.8,4.47,4.47,0,0,1,1.28-3.23,4,4,0,0,1,3-1.32,3,3,0,0,1,2.41.88,3.43,3.43,0,0,1,.73,2.27,3.85,3.85,0,0,1-1,2.42A9.37,9.37,0,0,1,16.83,37l5.1,8.66a16.56,16.56,0,0,0,2.67-6.25H21v-.72h8v.72H25.33a19.9,19.9,0,0,1-2.7,6.95,9.4,9.4,0,0,0,2,2.47,3.34,3.34,0,0,0,2.12.8,5.37,5.37,0,0,0,1.85-.32l.28.79a10.19,10.19,0,0,1-3.09.53,5.8,5.8,0,0,1-5-2.18A8.85,8.85,0,0,1,15,50.63,7.33,7.33,0,0,1,9.78,49a5.47,5.47,0,0,1-1.24-1.74,4.82,4.82,0,0,1-.46-2"/></g></g></g></svg>