<svg xmlns="http://www.w3.org/2000/svg" viewBox="0 0 29.95 30.07"><path d="M30,29l-8.88-8.92L26.2,15l-4.82-4.82L30,1.6a1.1,1.1,0,0,0,0-.8.69.69,0,0,0-1-.3L20.35,9.15,15.2,4,10.13,9.07,1.5.4a.67.67,0,0,0-1,0,.78.78,0,0,0,0,1.1l8.6,8.6L4.2,15l5.15,5.15L.5,29a.52.52,0,0,0-.2.4.77.77,0,0,0,.7.8.76.76,0,0,0,.5-.2l8.87-8.83L15.2,26l4.9-4.9L29,30a.76.76,0,0,0,.5.2.44.44,0,0,0,.5-.1A.78.78,0,0,0,30,29ZM24,15l-4,4L16.3,15.25l4-4ZM15.2,6.2l4,4-4,4-4-4.06ZM6.4,15l3.8-3.8,4,4L10.45,19Zm8.8,8.8-3.73-3.73,3.81-3.79L19,20Z" transform="translate(-0.28 -0.17)" fill="#fff"/></svg>