<svg xmlns="http://www.w3.org/2000/svg" viewBox="0 0 101.8 50.94"><path d="M52.1,44.6c-.5,2-.9,3.9-1.2,5.9-4.2-.1-7.2-.2-9-.2s-4.7.1-8.9.2c-.2,0-.3-.1-.3-.5s.1-.4.3-.4a6.37,6.37,0,0,0,2.7-.7,2.2,2.2,0,0,0,.7-2V31.8a4.53,4.53,0,0,0-.3-1.6,1.83,1.83,0,0,0-1-.7,7.79,7.79,0,0,0-2.1-.4c-.2,0-.3-.1-.3-.4s.1-.4.3-.4a25.35,25.35,0,0,1,2.6.1,23.55,23.55,0,0,0,2.5.1,23.55,23.55,0,0,0,2.5-.1,24.4,24.4,0,0,1,2.6-.1c.2,0,.3.1.3.4s-.1.3-.3.3a15.53,15.53,0,0,0-2.1.4,1.83,1.83,0,0,0-1,.7,4.53,4.53,0,0,0-.3,1.6V47.4a1.69,1.69,0,0,0,1.4,1.9H45a5.33,5.33,0,0,0,3.4-1.1,10.36,10.36,0,0,0,2.8-4c0-.1.1-.1.3-.1a.6.6,0,0,1,.4.1c.1.2.2.3.2.4" fill="#fff"/><path d="M61.5,43.1c-3.2.7-4.8,1.9-4.8,3.5s.6,2.3,1.8,2.3a4.71,4.71,0,0,0,1.7-.4,2,2,0,0,0,1.1-1.1ZM64,50.4a2.93,2.93,0,0,1-1.6-.4,2.15,2.15,0,0,1-.9-1.2,6.1,6.1,0,0,1-4.6,1.8,3.41,3.41,0,0,1-2.4-.9,2.74,2.74,0,0,1-.9-2.2c0-2.2,2.7-4,8-5.4l.1-2.5v-.1a2.79,2.79,0,0,0-.6-1.8,2,2,0,0,0-1.6-.7,2.62,2.62,0,0,0-1.7.5,1.39,1.39,0,0,0-.7,1.2,2.77,2.77,0,0,1-.5,1.6,2,2,0,0,1-1.4.6,1.61,1.61,0,0,1-.9-.3,1.14,1.14,0,0,1-.3-.8c0-.8.8-1.7,2.3-2.6a9.51,9.51,0,0,1,4.3-1.4,3.83,3.83,0,0,1,2.9,1,3.25,3.25,0,0,1,1.1,2.8v.2l-.2,7.3V47c0,1.1.4,1.7,1.1,1.7a2.39,2.39,0,0,0,1.3-.7h.1a.22.22,0,0,1,.2.2c.1.1.1.2.1.4s-.3.7-1,1.2a4,4,0,0,1-2.2.6Z" fill="#fff"/><path d="M79.2,37.7a1.5,1.5,0,0,1-.4,1.1,1.23,1.23,0,0,1-1,.5,2.39,2.39,0,0,1-1.4-.5,3,3,0,0,0-1-.4,3,3,0,0,0-2.2,1.2v7.3a2.88,2.88,0,0,0,.5,2,3.23,3.23,0,0,0,2.1.8c.2,0,.3.1.3.4a.46.46,0,0,1-.3.5,14.16,14.16,0,0,1-1.9-.1,17,17,0,0,0-2.2-.1,15.56,15.56,0,0,0-2,.1,13.05,13.05,0,0,1-1.7.1c-.2,0-.3-.2-.3-.5s.1-.4.3-.4a3.16,3.16,0,0,0,1.9-.7,3.61,3.61,0,0,0,.4-2.1V41a3.23,3.23,0,0,0-.3-1.7,2.69,2.69,0,0,0-1.5-.5c-.2,0-.3-.1-.3-.4s.1-.4.3-.4a14.26,14.26,0,0,0,2.7-.9,6.38,6.38,0,0,0,1.4-.8.52.52,0,0,1,.4-.2c.3,0,.5.1.5.3l-.1,2a9.8,9.8,0,0,1,2.3-1.7,4.14,4.14,0,0,1,1.9-.5,2.11,2.11,0,0,1,1.3.5,2.37,2.37,0,0,1,.3,1" fill="#fff"/><path d="M100.4,46.8a1.82,1.82,0,0,0-1.1-1,2,2,0,0,0-1.1,0,1.21,1.21,0,0,0-.7.7,1.26,1.26,0,0,0,.2,1.3,1.53,1.53,0,0,1,.2,1.3,1,1,0,0,1-.6.5l-.8.2a6.65,6.65,0,0,1-2.4-.7,11,11,0,0,1-2.3-2l-4.3-4.6L90.3,40a13.68,13.68,0,0,1,2.4-1.8,5.37,5.37,0,0,1,2.1-.5c.2,0,.3-.1.3-.4s-.1-.4-.3-.4a9.7,9.7,0,0,0-1.7.1c-.4,0-.8.1-1.2.1a9.74,9.74,0,0,1-1.6-.1,10.87,10.87,0,0,0-1.8-.1c-.2,0-.3.1-.3.4s.1.4.3.4c.9.1,1.3.3,1.3.6s-.5,1-1.4,1.8l-.4.3-2.5,2.3a1.61,1.61,0,0,1-.9.3V33a48.55,48.55,0,0,1,.3-5.6c0-.2-.2-.3-.5-.3a.52.52,0,0,0-.4.2,10.34,10.34,0,0,1-4.1,1.6c-.2,0-.3.1-.3.4s.1.4.3.4a2.69,2.69,0,0,1,1.5.5,2.49,2.49,0,0,1,.3,1.7v15a3.78,3.78,0,0,1-.4,2.1,2.79,2.79,0,0,1-1.8.6c-.2,0-.3.1-.3.4s.1.5.3.5a10.36,10.36,0,0,0,1.6-.1,10.9,10.9,0,0,1,1.7-.1,11.56,11.56,0,0,1,1.7.1,12.13,12.13,0,0,0,1.8.1c.2,0,.3-.2.3-.5s-.1-.4-.3-.4a1.71,1.71,0,0,1-1.3-.7,4.48,4.48,0,0,1-.4-2V43.7a1.61,1.61,0,0,1,.9.3l2.7,2.9c1.1,1.1,1.6,1.8,1.6,2.1s0,.3-.2.4-.4.1-.6.2-.3.2-.3.4.1.5.3.5a13.57,13.57,0,0,0,1.8-.1,14.8,14.8,0,0,1,2-.1,13.43,13.43,0,0,1,1.9.1l1,.1h.7a4,4,0,0,0,1.5-.3,3.67,3.67,0,0,0,2.3-1.9,1.37,1.37,0,0,0,.2-1.5" fill="#fff"/><path d="M37,1.8a.91.91,0,0,1,.7.3l.1.1a1.61,1.61,0,0,0-.5,1.1,1.85,1.85,0,0,0,.5,1.2c.1.1.3.2.4.3a2,2,0,0,0,.8.4,1.69,1.69,0,0,0,1-.3,4.35,4.35,0,0,0,.6-.7,1.88,1.88,0,0,0,.2-.8V3.1A2.22,2.22,0,0,0,40.3,2,3.33,3.33,0,0,0,37.5.8h-.9a8.08,8.08,0,0,0-1.5.1,10.28,10.28,0,0,1-1.7.1A10.9,10.9,0,0,1,31.7.9a12,12,0,0,0-1.9,0c-.2,0-.3.1-.3.4s.1.4.2.4c1.5.1,2.2.6,2.2,1.7a4,4,0,0,1-.3,1.5L25.2,19.3l-4.3-8.6L24.1,5a8.6,8.6,0,0,1,2-2.6,3.77,3.77,0,0,1,2.1-.7.46.46,0,0,0,.4-.5c0-.3-.1-.4-.2-.4a16.23,16.23,0,0,0-2.1.1,11.8,11.8,0,0,1-1.6.1A12.13,12.13,0,0,1,22.9.9,13.43,13.43,0,0,0,21,.8c-.1,0-.1,0-.2.1a.37.37,0,0,0-.1.3c0,.3.1.4.2.4,1.4.1,2.1.7,2.1,1.7a3,3,0,0,1-.5,1.6L20.1,9.3,17.7,4.5A4.42,4.42,0,0,1,17.2,3c0-.7.7-1.1,2.2-1.2.1,0,.2-.1.2-.4s-.1-.5-.3-.5a16.2,16.2,0,0,0-2.2.1H15A12.1,12.1,0,0,1,13.1.9a13.4,13.4,0,0,0-2-.1c-.1,0-.2.1-.2.4a.37.37,0,0,0,.1.3c0,.1.1.1.2.1a3.16,3.16,0,0,1,1.9.7A10.68,10.68,0,0,1,14.7,5l3.6,7.4-4,7.2L7.6,4.4a3.81,3.81,0,0,1-.3-1A2.13,2.13,0,0,1,8,2.2a3.37,3.37,0,0,1,1.7-.5c.1,0,.2-.1.2-.4S9.8.8,9.6.8A22.63,22.63,0,0,0,7.1.9,21.82,21.82,0,0,1,4.7,1,14.77,14.77,0,0,1,2.6.9,17,17,0,0,0,.3.8C.1.8,0,.9,0,1.2a.37.37,0,0,0,.1.3.31.31,0,0,0,.2.1,3.58,3.58,0,0,1,2.4.9A5.89,5.89,0,0,1,4.4,5l8.3,18.5a.57.57,0,0,0,1,0l5.4-9.6,4.7,9.6a.57.57,0,0,0,1,0L33.1,5a8.21,8.21,0,0,1,1.6-2.5,3.69,3.69,0,0,1,1.4-.7H37" fill="#fff"/><path d="M40.9,21.6a3.78,3.78,0,0,1-.4-2.1V14.4c0-1.3.1-3.2.3-5.6,0-.2-.2-.3-.5-.3a.76.76,0,0,0-.4.2,3.92,3.92,0,0,1-1.4.8,15.18,15.18,0,0,1-2.8.9c-.2,0-.3.1-.3.4s.1.4.3.4a2.69,2.69,0,0,1,1.5.5,2.49,2.49,0,0,1,.3,1.7v6a4,4,0,0,1-.4,2.1,2.87,2.87,0,0,1-1.8.7c-.2,0-.3.2-.3.4s.1.5.3.5A10.9,10.9,0,0,0,37,23a14.08,14.08,0,0,1,2-.1,15.56,15.56,0,0,1,2,.1,13.05,13.05,0,0,0,1.7.1c.2,0,.3-.2.3-.5s-.1-.4-.3-.4A2.11,2.11,0,0,1,40.9,21.6Z" fill="#fff"/><path d="M51.6,22.5a2.79,2.79,0,0,1-1.8-.6,3.78,3.78,0,0,1-.4-2.1V5.7c0-1.3.1-3.2.3-5.6L48.8,0a3.92,3.92,0,0,1-1.4.8,15.18,15.18,0,0,1-2.8.9c-.2,0-.3.1-.3.4s.1.4.3.4a2.46,2.46,0,0,1,1.5.5,2.49,2.49,0,0,1,.3,1.7v15a3.19,3.19,0,0,1-.4,2.1,2.47,2.47,0,0,1-1.8.6c-.2,0-.3.1-.3.4a.46.46,0,0,0,.3.5,10.9,10.9,0,0,0,1.7-.1,14.08,14.08,0,0,1,2-.1,15.56,15.56,0,0,1,2,.1,13.05,13.05,0,0,0,1.7.1c.2,0,.3-.2.3-.5a.27.27,0,0,0-.3-.3" fill="#fff"/><path d="M60.4,22.5a2.79,2.79,0,0,1-1.8-.6,3.78,3.78,0,0,1-.4-2.1V5.7c0-1.3.1-3.2.3-5.6L57.6,0a3.92,3.92,0,0,1-1.4.8,15.18,15.18,0,0,1-2.8.9c-.2,0-.3.1-.3.4s.1.4.3.4a2.46,2.46,0,0,1,1.5.5,2.49,2.49,0,0,1,.3,1.7v15a4,4,0,0,1-.4,2.1,2.47,2.47,0,0,1-1.8.6c-.2,0-.3.1-.3.4a.46.46,0,0,0,.3.5,10.9,10.9,0,0,0,1.7-.1,14.08,14.08,0,0,1,2-.1,15.56,15.56,0,0,1,2,.1,13.05,13.05,0,0,0,1.7.1c.2,0,.3-.1.3-.5s-.1-.3-.3-.3" fill="#fff"/><path d="M72.9,21.2a4,4,0,0,1-5.4,1.1,3.84,3.84,0,0,1-1.1-1.1,9.29,9.29,0,0,1-1.2-4.6,7.71,7.71,0,0,1,1.2-4.7,3.74,3.74,0,0,1,5.2-1.2,3.45,3.45,0,0,1,1.2,1.2,8.6,8.6,0,0,1,1.1,4.7A7.44,7.44,0,0,1,72.9,21.2ZM69.7,9a7.31,7.31,0,0,0-5.5,2.1,7.23,7.23,0,0,0-2.1,5.4,6.75,6.75,0,0,0,2.2,5.3,8.38,8.38,0,0,0,11.1,0,7,7,0,0,0,2.1-5.3,7,7,0,0,0-2.2-5.4A7.68,7.68,0,0,0,69.7,9Z" fill="#fff"/><path d="M101.4,9.4a8.6,8.6,0,0,0-1.6.1c-.4,0-.7.1-1.1.1a7.57,7.57,0,0,1-1.5-.1,8.6,8.6,0,0,0-1.6-.1c-.2,0-.3.1-.3.4s.1.4.3.4c1,.1,1.5.5,1.5,1.3a3.37,3.37,0,0,1-.5,1.7l-2.6,6L91.6,13a4.25,4.25,0,0,1-.2-1.1c0-.9.6-1.5,1.7-1.6.2,0,.3-.2.3-.4s-.1-.4-.3-.4a10.9,10.9,0,0,0-1.7.1,12.13,12.13,0,0,1-1.8.1A9.15,9.15,0,0,1,88,9.6a7.08,7.08,0,0,0-1.4-.1c-.2,0-.3.1-.3.4s.1.4.3.4a1.5,1.5,0,0,1,1.1.4,6.11,6.11,0,0,1,.7,1.4c.1.2.1.4.2.5l.1.5-2.9,6.3L83.2,13a4.71,4.71,0,0,1-.4-1.7,1.14,1.14,0,0,1,.3-.8,2.38,2.38,0,0,1,1.2-.3c.2,0,.3-.2.3-.4s-.1-.4-.3-.4a10.9,10.9,0,0,0-1.7.1,11.48,11.48,0,0,1-1.8.1,13.43,13.43,0,0,1-1.9-.1,11,11,0,0,0-1.6-.1c-.2,0-.3.1-.3.4s.1.4.3.4a2.88,2.88,0,0,1,1.8.7,6.25,6.25,0,0,1,1.3,2l4.4,10.6c.1.2.2.3.4.3s.3-.1.4-.3L89.5,15l3.4,8.5c0,.2.2.3.4.3s.3-.1.4-.3L98.4,13a8.18,8.18,0,0,1,1.2-2,3.16,3.16,0,0,1,1.9-.7c.2,0,.3-.2.3-.4s-.2-.5-.4-.5" fill="#fff"/><path d="M15.4,32.4a5,5,0,0,0,.2,1.7,9.83,9.83,0,0,0,.5,1.6l.4.6a6.74,6.74,0,0,0,2.2-1.9,3.86,3.86,0,0,0,.8-2c0-1.6-.7-2.4-2-2.4a1.82,1.82,0,0,0-1.4.6,2.2,2.2,0,0,0-.7,1.8M11,43.8A4.55,4.55,0,0,0,12,47a6,6,0,0,0,5,2.2,4.94,4.94,0,0,0,3-1.4l-5.5-9.5a8.48,8.48,0,0,0-2.6,2.4,5.61,5.61,0,0,0-.9,3.1M8,45.2a6.28,6.28,0,0,1,.3-1.9,8.86,8.86,0,0,1,.8-1.7,9.6,9.6,0,0,1,1.4-1.5,10.92,10.92,0,0,1,1.7-1.3c.6-.4,1.3-.8,2-1.2a8.21,8.21,0,0,1-1.3-3.8,4.22,4.22,0,0,1,1.3-3.2,4.34,4.34,0,0,1,3-1.3,2.72,2.72,0,0,1,2.4.9,3.17,3.17,0,0,1,.7,2.3,3.49,3.49,0,0,1-1,2.4,10.41,10.41,0,0,1-2.5,2.2l5.1,8.7a18,18,0,0,0,2.7-6.2H21v-.7h8v.7H25.3a22.12,22.12,0,0,1-2.7,7,9.58,9.58,0,0,0,2,2.5,3.23,3.23,0,0,0,2.1.8,6.28,6.28,0,0,0,1.9-.3l.3.8a10.59,10.59,0,0,1-3.1.5,5.76,5.76,0,0,1-5-2.2A8.91,8.91,0,0,1,15,50.9a6.92,6.92,0,0,1-5.2-1.6,6.57,6.57,0,0,1-1.2-1.7A8.4,8.4,0,0,1,8,45.2" fill="#fff"/></svg>